<svg height="512" viewBox="0 0 128 128" width="512" xmlns="http://www.w3.org/2000/svg" xmlns:xlink="http://www.w3.org/1999/xlink"><linearGradient id="a" gradientUnits="userSpaceOnUse" x1="100.936" x2="36.536" y1="98.322" y2="33.922"><stop offset="0" stop-color="#00acf3"/><stop offset="1" stop-color="#42e893"/></linearGradient><path d="m108.83 75.815c-.754-6.142-19.389-7.43-27.455-7.7v-9.407c7.135-1.084 13.75-3.112 13.75-6.905v-4.636a1.75 1.75 0 0 0 -3.5 0l.013 4.549c-.285.7-3.792 2.567-11.876 3.739-.044 0-.086-.014-.131-.014a1.8 1.8 0 0 0 -.668.128 113.434 113.434 0 0 1 -14.963.886c-19.541 0-27.209-3.694-27.625-4.652v-8.668c7.919 3.956 26.625 4.016 27.625 4.016 1.271 0 31.125-.092 31.125-8.151s-29.854-8.152-31.125-8.152q-1.995 0-3.924.056a1.75 1.75 0 0 0 .1 3.5q1.877-.056 3.823-.055c19.033 0 26.8 3.5 27.59 4.652-.789 1.146-8.556 4.65-27.589 4.65s-26.8-3.502-27.589-4.651c.386-.548 2.635-2.038 9.24-3.223a1.75 1.75 0 1 0 -.618-3.445c-8.181 1.468-12.158 3.649-12.158 6.668v11.3c-9.12 1.417-13.75 3.746-13.75 6.932v12.8c0 5.857 16.089 7.481 23.006 7.907h.11a1.75 1.75 0 0 0 .106-3.5c-13.731-.847-19.3-3.445-19.722-4.414v-8.655c7.919 3.956 26.624 4.016 27.625 4.016s19.706-.06 27.625-4.016v6.676h-.125c-1.25 0-30.138.1-31.08 7.77a1.728 1.728 0 0 0 -.045.382v12.802c0 8.059 29.854 8.152 31.125 8.152s31.125-.093 31.125-8.152v-12.8a1.728 1.728 0 0 0 -.045-.385zm-86.17-18.58c.429-.629 3.079-2.289 10.876-3.493 4.369 6.132 29.305 6.213 30.464 6.213.411 0 3.818-.012 8.231-.3-4.359 1.154-11.44 2.229-21.981 2.229-19.033.002-26.803-3.501-27.59-4.649zm55.09 36.417c-19.541 0-27.209-3.694-27.625-4.652v-8.668c7.919 3.956 26.624 4.017 27.625 4.017 1.479 0 2.958-.024 4.4-.071a1.75 1.75 0 0 0 -.113-3.5c-1.4.046-2.842.069-4.283.069-19.033 0-26.8-3.5-27.59-4.652.787-1.148 8.557-4.652 27.59-4.652 18.989 0 26.767 3.488 27.584 4.644-.275.351-1.79 1.808-8.526 3.1a1.75 1.75 0 0 0 .658 3.438 31.919 31.919 0 0 0 7.913-2.368l.009 8.556c-.702 1.701-10.534 4.739-27.642 4.739zm13.993-11.809a1.75 1.75 0 0 1 -1.567 1.915q-.678.069-1.375.129c-.051 0-.1.007-.153.007a1.75 1.75 0 0 1 -.148-3.494c.448-.039.892-.081 1.328-.124a1.749 1.749 0 0 1 1.915 1.567zm-40.357-48.643a1.751 1.751 0 0 1 1.593-1.895l.831-.069a1.75 1.75 0 0 1 .273 3.49l-.8.066c-.052.005-.1.007-.153.007a1.75 1.75 0 0 1 -1.744-1.599z" fill="url(#a)"/></svg>