<svg id="Capa_1" enable-background="new 0 0 512 512" height="512" viewBox="0 0 512 512" width="512" xmlns="http://www.w3.org/2000/svg"><g><g><path d="m117.64 217.863c3.333 1.653 7.307 1.316 10.317-.869 3.009-2.187 4.557-5.862 4.017-9.543l-6.226-42.425 29.933-30.647c2.599-2.661 3.506-6.544 2.356-10.08-1.15-3.537-4.169-6.144-7.835-6.766l-42.224-7.171-19.868-37.967c-1.726-3.297-5.139-5.363-8.86-5.363s-7.135 2.066-8.86 5.363l-19.868 37.967-42.196 7.171c-3.667.623-6.684 3.229-7.834 6.766s-.243 7.42 2.356 10.08l29.933 30.647-6.226 42.425c-.54 3.681 1.008 7.357 4.018 9.544 1.74 1.264 3.802 1.908 5.877 1.908 1.514 0 3.035-.344 4.441-1.041l38.362-19.02zm-42.833-39.141-25.693 12.738 4.172-28.429c.453-3.087-.561-6.208-2.74-8.439l-20.06-20.539 28.272-4.805c3.079-.523 5.737-2.455 7.185-5.222l13.306-25.428 13.306 25.428c1.448 2.768 4.106 4.699 7.186 5.222l28.298 4.807-20.059 20.537c-2.18 2.231-3.193 5.353-2.74 8.439l4.173 28.436-25.725-12.746c-1.399-.693-2.919-1.04-4.44-1.04-1.52 0-3.042.347-4.441 1.041z"/><path d="m197.327 131.32-8.579 58.485c-.54 3.681 1.008 7.356 4.018 9.543s6.985 2.52 10.318.867l52.902-26.227 52.902 26.227c1.406.697 2.927 1.041 4.441 1.041 2.074 0 4.137-.645 5.877-1.908 3.01-2.187 4.558-5.862 4.018-9.543l-8.579-58.485 41.271-42.251c2.599-2.66 3.506-6.543 2.356-10.079-1.149-3.537-4.167-6.144-7.833-6.767l-58.185-9.895-27.409-52.352c-1.726-3.297-5.14-5.363-8.861-5.362s-7.134 2.067-8.859 5.365l-27.38 52.35-58.21 9.895c-3.667.623-6.684 3.229-7.834 6.766s-.243 7.42 2.356 10.08zm30.657-50.105c3.08-.523 5.738-2.456 7.186-5.224l20.821-39.81 20.843 39.812c1.448 2.767 4.105 4.697 7.183 5.221l44.261 7.526-31.398 32.145c-2.18 2.231-3.193 5.353-2.741 8.438l6.526 44.491-40.237-19.947c-1.399-.694-2.921-1.041-4.442-1.041s-3.042.347-4.442 1.041l-40.237 19.947 6.526-44.491c.453-3.086-.561-6.207-2.741-8.438l-31.397-32.144z"/><path d="m511.51 124.3c-1.15-3.538-4.168-6.146-7.836-6.768l-42.224-7.171-19.868-37.967c-1.726-3.297-5.139-5.363-8.86-5.363s-7.135 2.066-8.86 5.363l-19.868 37.967-42.196 7.171c-3.667.623-6.684 3.229-7.834 6.766s-.243 7.42 2.356 10.08l29.933 30.647-6.226 42.425c-.54 3.681 1.008 7.357 4.018 9.544s6.986 2.521 10.318.867l38.36-19.019 38.36 19.019c1.406.697 2.927 1.041 4.441 1.041 2.074 0 4.137-.645 5.877-1.908 3.01-2.187 4.558-5.863 4.018-9.544l-6.226-42.423 29.958-30.646c2.601-2.66 3.509-6.544 2.359-10.081zm-50.081 30.289c-2.182 2.231-3.196 5.354-2.743 8.442l4.172 28.429-25.693-12.738c-2.799-1.389-6.085-1.389-8.884 0l-25.693 12.738 4.172-28.429c.453-3.087-.561-6.208-2.74-8.439l-20.06-20.539 28.272-4.805c3.079-.523 5.737-2.455 7.185-5.222l13.306-25.428 13.306 25.428c1.448 2.768 4.106 4.699 7.186 5.222l28.289 4.805z"/><path d="m427.007 260.937c-1.707-3.351-5.15-5.461-8.911-5.461h-326.318c-3.761 0-7.204 2.11-8.911 5.461l-32.343 63.496c-1.579 3.101-1.434 6.798.385 9.765 1.818 2.966 5.047 4.774 8.526 4.774h10.296v158.415c0 5.522 4.477 10 10 10h350.384c5.523 0 10-4.478 10-10v-158.415h10.324c3.479 0 6.708-1.809 8.526-4.774 1.818-2.967 1.964-6.664.385-9.765zm-351.255 58.035 22.155-43.496h140.714l-22.155 43.496zm344.363 168.415h-155.178v-40.899c0-5.522-4.477-10-10-10s-10 4.478-10 10v40.899h-155.206v-148.415h132.863c3.761 0 7.204-2.11 8.911-5.461l13.432-26.37v49.465c0 5.522 4.477 10 10 10s10-4.478 10-10v-49.465l13.432 26.37c1.707 3.351 5.15 5.461 8.911 5.461h132.835zm-126.706-168.415-22.155-43.496h140.714l22.155 43.496z"/><path d="m177.723 437.935h-51.448c-5.523 0-10 4.478-10 10s4.477 10 10 10h51.448c5.523 0 10-4.478 10-10s-4.477-10-10-10z"/><path d="m254.937 391.547c-5.523 0-10 4.478-10 10v.057c0 5.522 4.477 9.972 10 9.972s10-4.506 10-10.028-4.477-10.001-10-10.001z"/></g></g></svg>