<?xml version="1.0" encoding="iso-8859-1"?>
<!-- Generator: Adobe Illustrator 19.0.0, SVG Export Plug-In . SVG Version: 6.00 Build 0)  -->
<svg xmlns="http://www.w3.org/2000/svg" xmlns:xlink="http://www.w3.org/1999/xlink" version="1.1" id="Layer_1" x="0px" y="0px" viewBox="0 0 512 512" style="enable-background:new 0 0 512 512;" xml:space="preserve" width="512" height="512">
<g>
	<g>
		<g>
			<path style="fill:#EFEDEE;" d="M256.786,7.502c-69.721-0.401-127.405,52.496-134.61,120.246     c-0.815,7.662,5.226,14.334,12.931,14.334h24.154c6.524,0,12.007-4.844,12.875-11.31c5.742-42.803,43.609-75.574,88.47-73.183     c42.899,2.286,77.605,36.995,79.888,79.893c2.594,48.737-36.312,89.217-84.494,89.217h-97.496     c-20.482,0-37.086,16.604-37.086,37.086v211.591c0,16.085,13.04,29.125,29.125,29.125h210.914     c16.085,0,29.125-13.04,29.125-29.125V143.563C390.582,69.299,331.049,7.929,256.786,7.502z"/>
		</g>
		<g>
			<path style="fill:#D4D2D3;" d="M143.418,475.375V263.784c0-20.482,16.604-37.086,37.086-37.086h-22     c-20.482,0-37.086,16.604-37.086,37.086v211.591c0,16.085,13.04,29.125,29.125,29.125h22     C156.458,504.5,143.418,491.46,143.418,475.375z"/>
			<path style="fill:#D4D2D3;" d="M135.107,142.082h22c-7.705,0-13.746-6.672-12.931-14.334     c6.796-63.9,58.499-114.578,122.85-119.796c-3.379-0.277-6.793-0.43-10.24-0.449c-69.721-0.401-127.405,52.496-134.61,120.245     C121.361,135.41,127.402,142.082,135.107,142.082z"/>
		</g>
		<path style="fill:#DC5A64;" d="M325.782,296.216c-0.091-0.096-0.171-0.199-0.265-0.293c-0.094-0.094-0.196-0.173-0.292-0.264    c-17.785-17.645-42.253-28.562-69.225-28.562c-54.227,0-98.343,44.117-98.343,98.344c0,26.974,10.919,51.443,28.565,69.228    c0.09,0.095,0.169,0.196,0.262,0.289s0.194,0.171,0.289,0.261c17.785,17.646,42.254,28.565,69.228,28.565    c54.227,0,98.344-44.117,98.344-98.344C354.344,338.469,343.426,314.001,325.782,296.216z M256,297.097    c13.422,0,25.943,3.905,36.515,10.616l-94.242,94.242c-6.711-10.572-10.616-23.092-10.616-36.515    C187.657,327.756,218.315,297.097,256,297.097z M256,433.784c-13.422,0-25.943-3.905-36.514-10.616l94.242-94.242    c6.711,10.572,10.616,23.092,10.616,36.515C324.344,403.125,293.684,433.784,256,433.784z"/>
	</g>
	<g>
		<path d="M349.99,46.018c-3.066,2.785-3.293,7.528-0.507,10.594c21.667,23.847,33.599,54.727,33.599,86.95v331.813    c0,11.924-9.701,21.625-21.625,21.625H150.543c-11.924,0-21.625-9.701-21.625-21.625V263.784    c0-16.313,13.272-29.585,29.585-29.585H256c25.501,0,49.235-10.22,66.832-28.778c17.579-18.539,26.511-42.809,25.152-68.338    c-1.203-22.6-10.756-43.937-26.899-60.082c-16.144-16.144-37.48-25.699-60.08-26.903c-23.412-1.247-46.19,6.348-64.123,21.387    c-17.7,14.844-29.128,35.545-32.18,58.289c-0.367,2.741-2.707,4.807-5.441,4.807h-24.154c-2.138,0-3.488-1.146-4.103-1.83    c-0.607-0.675-1.593-2.12-1.37-4.211c3.307-31.095,18.018-59.825,41.422-80.899c23.579-21.23,54.046-32.814,85.687-32.64    c25.664,0.147,50.357,8.031,71.411,22.798c3.392,2.379,8.068,1.557,10.447-1.833c2.378-3.391,1.558-8.068-1.833-10.447    C313.202,8.991,285.56,0.168,256.829,0.002c-35.429-0.189-69.448,12.757-95.81,36.493c-26.159,23.554-42.602,55.679-46.301,90.459    c-0.612,5.751,1.259,11.52,5.133,15.827c3.886,4.321,9.447,6.8,15.256,6.8h24.154c10.216,0,18.946-7.658,20.308-17.813    c2.553-19.027,12.125-36.354,26.952-48.79c15.01-12.588,34.068-18.948,53.686-17.901c18.896,1.007,36.749,9.009,50.27,22.531    c13.521,13.522,21.522,31.376,22.528,50.272c1.138,21.377-6.341,41.699-21.059,57.22c-14.735,15.54-34.604,24.099-55.947,24.099    h-97.496c-24.584,0-44.585,20.001-44.585,44.585v211.591c0,20.195,16.43,36.625,36.625,36.625h210.914    c20.195,0,36.625-16.43,36.625-36.625V143.563c0-35.962-13.317-70.424-37.498-97.037C357.799,43.461,353.056,43.232,349.99,46.018    z"/>
		<path d="M299.969,306.89c-0.25-2.262-1.513-4.289-3.435-5.509c-12.145-7.709-26.161-11.784-40.534-11.784    c-41.82,0-75.843,34.023-75.843,75.844c0,14.373,4.075,28.39,11.784,40.534c1.22,1.922,3.247,3.186,5.51,3.435    c0.275,0.03,0.549,0.045,0.823,0.045c1.978,0,3.889-0.783,5.303-2.197l94.242-94.242    C299.427,311.407,300.219,309.153,299.969,306.89z M200.131,389.49c-3.272-7.563-4.975-15.732-4.975-24.049    c0-33.549,27.294-60.844,60.843-60.844c8.317,0,16.486,1.703,24.049,4.975L200.131,389.49z"/>
		<path d="M314.549,321.471c-2.264-0.249-4.516,0.542-6.125,2.151l-94.242,94.242c-1.61,1.609-2.401,3.863-2.152,6.125    c0.25,2.263,1.513,4.29,3.435,5.51c12.144,7.709,26.16,11.784,40.534,11.784c41.82,0,75.844-34.023,75.844-75.844    c0-14.374-4.075-28.39-11.784-40.534C318.839,322.984,316.812,321.721,314.549,321.471z M256,426.284    c-8.317,0-16.486-1.703-24.049-4.975l79.918-79.918c3.272,7.563,4.975,15.732,4.975,24.049    C316.843,398.99,289.549,426.284,256,426.284z"/>
		<path d="M330.364,290.193c-19.963-19.732-46.364-30.596-74.365-30.596c-58.362,0-105.843,47.481-105.843,105.844    c0,28.002,10.864,54.404,30.598,74.367c0.137,0.155,0.279,0.308,0.433,0.462c0.143,0.143,0.29,0.279,0.448,0.418    c19.962,19.732,46.364,30.597,74.365,30.597c58.362,0,105.844-47.481,105.844-105.844c0-28-10.864-54.401-30.595-74.364    c-0.137-0.155-0.278-0.307-0.429-0.458C330.674,290.473,330.525,290.336,330.364,290.193z M346.843,365.441    c0,50.091-40.752,90.844-90.844,90.844c-24.085,0-46.794-9.372-63.945-26.389c-0.04-0.039-0.08-0.078-0.121-0.117    c-0.047-0.044-0.094-0.088-0.143-0.132c-0.044-0.049-0.09-0.098-0.135-0.146c-0.036-0.039-0.073-0.077-0.11-0.114    c-17.017-17.151-26.389-39.861-26.389-63.946c0-50.091,40.752-90.844,90.843-90.844c24.084,0,46.792,9.371,63.943,26.386    c0.04,0.04,0.08,0.078,0.12,0.117c0.047,0.045,0.095,0.089,0.144,0.133c0.049,0.054,0.098,0.107,0.149,0.16    c0.034,0.036,0.068,0.071,0.103,0.105C337.473,318.649,346.843,341.358,346.843,365.441z"/>
	</g>
</g>















</svg>
