<?xml version="1.0" encoding="iso-8859-1"?>
<!-- Generator: Adobe Illustrator 16.0.0, SVG Export Plug-In . SVG Version: 6.00 Build 0)  -->
<!DOCTYPE svg PUBLIC "-//W3C//DTD SVG 1.1//EN" "http://www.w3.org/Graphics/SVG/1.1/DTD/svg11.dtd">
<svg version="1.1" id="Capa_1" xmlns="http://www.w3.org/2000/svg" xmlns:xlink="http://www.w3.org/1999/xlink" x="0px" y="0px"
	 width="437.242px" height="437.242px" viewBox="0 0 437.242 437.242" style="enable-background:new 0 0 437.242 437.242;"
	 xml:space="preserve">
<g>
	<path d="M218.621,0c-54.937,0-99.63,44.694-99.629,99.546c-0.015,1.234,0.085,12.281,7.756,20.039
		c4.518,4.57,10.75,6.985,18.021,6.985c7.276,0,13.527-2.408,18.076-6.964c7.689-7.7,7.896-18.648,7.895-19.86
		c0-24.927,19.879-45.207,44.313-45.207s44.313,19.879,44.313,44.313c0,28.39-27.346,40.354-59.008,54.207
		c-38.085,16.663-81.251,35.549-81.251,89.095v187.588c0,4.143,3.357,7.5,7.5,7.5h184.027c4.144,0,7.5-3.357,7.5-7.5V100.959
		c0.077-0.432,0.117-0.875,0.117-1.328C318.253,44.694,273.56,0,218.621,0z M303.136,97.1v325.142H134.108V242.154
		c0-43.735,35.102-59.094,72.264-75.353c33.429-14.626,67.995-29.75,67.995-67.949c0-32.706-26.607-59.313-59.313-59.313
		c-15.822,0-30.739,6.351-42.003,17.882c-11.163,11.43-17.311,26.461-17.311,42.275c-0.043,2.785-0.963,11.874-10.971,11.874
		c-4.565,0-7.379-1.563-9.124-5.068c-1.616-3.246-1.654-6.811-1.654-6.871c0-46.666,37.965-84.631,84.63-84.631
		c45.525,0,82.772,36.137,84.563,81.231C303.152,96.517,303.136,96.807,303.136,97.1z"/>
</g>
<g>
</g>
<g>
</g>
<g>
</g>
<g>
</g>
<g>
</g>
<g>
</g>
<g>
</g>
<g>
</g>
<g>
</g>
<g>
</g>
<g>
</g>
<g>
</g>
<g>
</g>
<g>
</g>
<g>
</g>
</svg>
