<?xml version="1.0" encoding="iso-8859-1"?>
<!-- Generator: Adobe Illustrator 19.0.0, SVG Export Plug-In . SVG Version: 6.00 Build 0)  -->
<svg version="1.1" id="Capa_1" xmlns="http://www.w3.org/2000/svg" xmlns:xlink="http://www.w3.org/1999/xlink" x="0px" y="0px"
	 viewBox="0 0 512 512" style="enable-background:new 0 0 512 512;" xml:space="preserve">
<path style="fill:#303C42;" d="M384,106.667h-64v-64C320,19.135,300.865,0,277.333,0h-128c-23.531,0-42.667,19.135-42.667,42.667v64
	h-64C19.135,106.667,0,125.802,0,149.333V352c0,5.896,4.771,10.667,10.667,10.667h106.667h192H416
	c5.896,0,10.667-4.771,10.667-10.667V149.333C426.667,125.802,407.531,106.667,384,106.667z"/>
<path style="fill:#E6E6E6;" d="M106.667,341.333H21.333v-192c0-11.76,9.573-21.333,21.333-21.333h64V341.333z"/>
<path style="fill:#303C42;" d="M74.667,149.333H53.333c-5.896,0-10.667,4.771-10.667,10.667v21.333
	c0,5.896,4.771,10.667,10.667,10.667h21.333c5.896,0,10.667-4.771,10.667-10.667V160C85.333,154.104,80.563,149.333,74.667,149.333z
	"/>
<rect x="192" y="256" style="fill:#BBDEFB;" width="42.667" height="85.333"/>
<g>
	<polygon style="opacity:0.4;fill:#FFFFFF;enable-background:new    ;" points="192,309.333 234.667,266.667 234.667,256 
		228.039,256 192,292.039 	"/>
	<polygon style="opacity:0.4;fill:#FFFFFF;enable-background:new    ;" points="192,341.332 234.667,298.667 234.667,279.542 
		192,322.21 	"/>
</g>
<path style="fill:#E6E6E6;" d="M277.333,21.333h-128c-11.76,0-21.333,9.573-21.333,21.333v298.667h42.667v-96
	c0-5.896,4.771-10.667,10.667-10.667h64c5.896,0,10.667,4.771,10.667,10.667v96h42.667V42.667
	C298.667,30.906,289.094,21.333,277.333,21.333z"/>
<g>
	<path style="fill:#303C42;" d="M192,42.667h-32c-5.896,0-10.667,4.771-10.667,10.667v21.333c0,5.896,4.771,10.667,10.667,10.667h32
		c5.896,0,10.667-4.771,10.667-10.667V53.333C202.667,47.438,197.896,42.667,192,42.667z"/>
	<path style="fill:#303C42;" d="M266.667,42.667h-32c-5.896,0-10.667,4.771-10.667,10.667v21.333
		c0,5.896,4.771,10.667,10.667,10.667h32c5.896,0,10.667-4.771,10.667-10.667V53.333C277.333,47.438,272.563,42.667,266.667,42.667z
		"/>
	<path style="fill:#303C42;" d="M192,106.667h-32c-5.896,0-10.667,4.771-10.667,10.667v21.333c0,5.896,4.771,10.667,10.667,10.667
		h32c5.896,0,10.667-4.771,10.667-10.667v-21.333C202.667,111.438,197.896,106.667,192,106.667z"/>
	<path style="fill:#303C42;" d="M266.667,106.667h-32c-5.896,0-10.667,4.771-10.667,10.667v21.333
		c0,5.896,4.771,10.667,10.667,10.667h32c5.896,0,10.667-4.771,10.667-10.667v-21.333
		C277.333,111.438,272.563,106.667,266.667,106.667z"/>
	<path style="fill:#303C42;" d="M192,170.667h-32c-5.896,0-10.667,4.771-10.667,10.667v21.333c0,5.896,4.771,10.667,10.667,10.667
		h32c5.896,0,10.667-4.771,10.667-10.667v-21.333C202.667,175.438,197.896,170.667,192,170.667z"/>
</g>
<path style="fill:#E6E6E6;" d="M320,341.333h85.333v-192c0-11.76-9.573-21.333-21.333-21.333h-64V341.333z"/>
<g>
	<path style="fill:#303C42;" d="M266.667,170.667h-32c-5.896,0-10.667,4.771-10.667,10.667v21.333
		c0,5.896,4.771,10.667,10.667,10.667h32c5.896,0,10.667-4.771,10.667-10.667v-21.333
		C277.333,175.438,272.563,170.667,266.667,170.667z"/>
	<path style="fill:#303C42;" d="M74.667,213.333H53.333c-5.896,0-10.667,4.771-10.667,10.667v21.333
		c0,5.896,4.771,10.667,10.667,10.667h21.333c5.896,0,10.667-4.771,10.667-10.667V224C85.333,218.104,80.563,213.333,74.667,213.333
		z"/>
	<path style="fill:#303C42;" d="M74.667,277.333H53.333c-5.896,0-10.667,4.771-10.667,10.667v21.333
		c0,5.896,4.771,10.667,10.667,10.667h21.333c5.896,0,10.667-4.771,10.667-10.667V288C85.333,282.104,80.563,277.333,74.667,277.333
		z"/>
	<path style="fill:#303C42;" d="M352,149.333h21.333c5.896,0,10.667,4.771,10.667,10.667v21.333c0,5.896-4.771,10.667-10.667,10.667
		H352c-5.896,0-10.667-4.771-10.667-10.667V160C341.333,154.104,346.104,149.333,352,149.333z"/>
	<path style="fill:#303C42;" d="M352,213.333h21.333c5.896,0,10.667,4.771,10.667,10.667v21.333c0,5.896-4.771,10.667-10.667,10.667
		H352c-5.896,0-10.667-4.771-10.667-10.667V224C341.333,218.104,346.104,213.333,352,213.333z"/>
	<path style="fill:#303C42;" d="M352,277.333h21.333c5.896,0,10.667,4.771,10.667,10.667v21.333c0,5.896-4.771,10.667-10.667,10.667
		H352c-5.896,0-10.667-4.771-10.667-10.667V288C341.333,282.104,346.104,277.333,352,277.333z"/>
	<path style="fill:#303C42;" d="M384,170.667c-71.771,0-128,56.229-128,128c0,95.26,115.75,205.76,120.677,210.417
		c2.052,1.948,4.688,2.917,7.323,2.917c2.635,0,5.271-0.969,7.323-2.917C396.25,504.427,512,393.927,512,298.667
		C512,226.896,455.771,170.667,384,170.667z M384,341.333c-23.531,0-42.667-19.135-42.667-42.667S360.469,256,384,256
		s42.667,19.135,42.667,42.667S407.531,341.333,384,341.333z"/>
</g>
<path id="SVGCleanerId_0" style="fill:#E53935;" d="M384,192c-59.813,0-106.667,46.854-106.667,106.667
	c0,73.125,81.469,161.917,106.667,187.625c25.198-25.708,106.667-114.5,106.667-187.625C490.667,238.854,443.813,192,384,192z
	 M384,362.667c-35.292,0-64-28.708-64-64s28.708-64,64-64s64,28.708,64,64S419.292,362.667,384,362.667z"/>
<g>
	<path id="SVGCleanerId_0_1_" style="fill:#E53935;" d="M384,192c-59.813,0-106.667,46.854-106.667,106.667
		c0,73.125,81.469,161.917,106.667,187.625c25.198-25.708,106.667-114.5,106.667-187.625C490.667,238.854,443.813,192,384,192z
		 M384,362.667c-35.292,0-64-28.708-64-64s28.708-64,64-64s64,28.708,64,64S419.292,362.667,384,362.667z"/>
</g>
<path style="opacity:0.1;enable-background:new    ;" d="M384,192c41.868,0,74.667,46.854,74.667,106.667
	c0,73.125-57.029,161.917-74.667,187.625c25.198-25.708,106.667-114.5,106.667-187.625C490.667,238.854,443.813,192,384,192z"/>
<path style="opacity:0.2;fill:#FFFFFF;enable-background:new    ;" d="M384,192c-59.813,0-106.667,46.854-106.667,106.667
	c0,73.125,81.469,161.917,106.667,187.625c-17.638-25.708-74.667-114.5-74.667-187.625C309.333,238.854,342.132,192,384,192z"/>
<linearGradient id="SVGID_1_" gradientUnits="userSpaceOnUse" x1="-46.2122" y1="640.9805" x2="-23.0468" y2="630.1783" gradientTransform="matrix(21.3333 0 0 -21.3333 996.3334 13791.667)">
	<stop  offset="0" style="stop-color:#FFFFFF;stop-opacity:0.2"/>
	<stop  offset="1" style="stop-color:#FFFFFF;stop-opacity:0"/>
</linearGradient>
<path style="fill:url(#SVGID_1_);" d="M426.667,177.84v-28.507c0-23.531-19.135-42.667-42.667-42.667h-64v-64
	C320,19.135,300.865,0,277.333,0h-128c-23.531,0-42.667,19.135-42.667,42.667v64h-64C19.135,106.667,0,125.802,0,149.333V352
	c0,5.896,4.771,10.667,10.667,10.667h106.667h153.353c31.224,74.867,102.152,142.789,105.991,146.417
	c2.052,1.948,4.688,2.917,7.323,2.917c2.635,0,5.271-0.969,7.323-2.917C396.25,504.427,512,393.927,512,298.667
	C512,241.949,476.819,195.064,426.667,177.84z"/>
<g>
</g>
<g>
</g>
<g>
</g>
<g>
</g>
<g>
</g>
<g>
</g>
<g>
</g>
<g>
</g>
<g>
</g>
<g>
</g>
<g>
</g>
<g>
</g>
<g>
</g>
<g>
</g>
<g>
</g>
</svg>
