<?xml version="1.0"?>
<svg xmlns="http://www.w3.org/2000/svg" id="Solid" width="512" height="512" viewBox="0 0 512 512"><g id="_07" data-name="07"><g><polygon points="368 248 382.142 222.142 408 208 382.142 193.858 368 168 353.858 193.858 328 208 353.858 222.142 368 248"/><polygon points="444.156 176.689 454.354 158.042 473 147.844 454.354 137.646 444.156 119 433.958 137.646 415.311 147.844 433.958 158.042 444.156 176.689"/><path d="M216,189.156V129.3L210.234,112H109.766L104,129.3v60.161a21.881,21.881,0,0,0,12.161,19.678l43.816,21.907,43.961-22.261A21.9,21.9,0,0,0,216,189.156Z"/><path d="M80,176v70a2,2,0,0,0,2,2h39.162l4.434-16.258-16.59-8.295A37.792,37.792,0,0,1,88,189.459V176Z"/><path d="M163.614,247.137a8,8,0,0,1-7.192.018l-16.231-8.116-10.138,37.172A22,22,0,0,0,151.277,304h17.446a22,22,0,0,0,21.224-27.789l-10.162-37.262Z"/><path d="M102.712,360,91.418,424H228.582l-11.294-64ZM128,392H112V376h16Zm80,0H192V376h16Z"/><path d="M240,246V176h-8v13.156a37.82,37.82,0,0,1-20.833,33.9l-16.81,8.512L198.838,248H238A2,2,0,0,0,240,246Z"/><path d="M392,360v32h60a12.013,12.013,0,0,0,12-12v-8a12.013,12.013,0,0,0-12-12Z"/><path d="M376,440V424H280v14.074q1.167.938,2.288,1.926Z"/><path d="M206.363,287.44A38.087,38.087,0,0,1,168.723,320H151.277a38.087,38.087,0,0,1-37.64-32.56L89.109,298.761,102.035,344h115.93l12.926-45.24Z"/><path d="M376,355.462A92.182,92.182,0,0,0,337.474,280.6L328,273.831l-9.474,6.767A92.182,92.182,0,0,0,280,355.462V408h96ZM312,392H296V336h16Zm24-72H320V304h16Zm24,72H344V336h16Z"/><path d="M240,440H208v40h79.333A48.078,48.078,0,0,0,240,440Z"/><path d="M303.5,480H480V456H295.411A63.53,63.53,0,0,1,303.5,480Z"/><path d="M468,408H392v32h76a12.013,12.013,0,0,0,12-12v-8A12.013,12.013,0,0,0,468,408Z"/><path d="M264,428.669V355.462a107.819,107.819,0,0,1,7-38.189l-25.409-11.727L232.2,352.425l12.663,71.758A63.541,63.541,0,0,1,264,428.669Z"/><path d="M64,424H75.17L87.8,352.425,74.407,305.546,44.781,319.22A22.065,22.065,0,0,0,32,339.2V468a12.013,12.013,0,0,0,12,12H192V440H64Z"/><path d="M74,160H88V136H74a2,2,0,0,0-2,2v20A2,2,0,0,0,74,160Z"/><path d="M96.411,101.47A8,8,0,0,1,104,96H216a8,8,0,0,1,7.589,5.47L229.766,120H240V84a52.059,52.059,0,0,0-52-52H132A52.059,52.059,0,0,0,80,84v36H90.234Z"/><path d="M232,160h14a2,2,0,0,0,2-2V138a2,2,0,0,0-2-2H232Z"/></g></g></svg>
