<?xml version="1.0" encoding="iso-8859-1"?>
<!-- Generator: Adobe Illustrator 19.0.0, SVG Export Plug-In . SVG Version: 6.00 Build 0)  -->
<svg version="1.1" id="Capa_1" xmlns="http://www.w3.org/2000/svg" xmlns:xlink="http://www.w3.org/1999/xlink" x="0px" y="0px"
	 viewBox="0 0 512 512" style="enable-background:new 0 0 512 512;" xml:space="preserve">
<path style="fill:#00D4BE;" d="M256,0v512c141.385,0,256-114.615,256-256S397.385,0,256,0z"/>
<path style="fill:#06F5DD;" d="M481.095,256C481.095,114.615,380.316,0,256,0C114.615,0,0,114.615,0,256s114.615,256,256,256
	C380.316,512,481.095,397.385,481.095,256z"/>
<path style="fill:#FFFFFF;" d="M256,61.811c-7.845,0-15.577,0.478-23.179,1.382V256h46.358V63.193
	C271.577,62.289,263.845,61.811,256,61.811z"/>
<path style="fill:#DBFFF8;" d="M310.085,69.452v48.924c54.892,21.588,93.746,75.068,93.746,137.623
	c0,81.645-66.186,147.831-147.831,147.831l-30.905,23.179L256,450.188c107.248,0.001,194.189-86.94,194.189-194.188
	C450.189,167.523,391.013,92.875,310.085,69.452z"/>
<path style="fill:#FFFFFF;" d="M108.169,256c0-62.556,38.854-116.034,93.746-137.623V69.452
	C120.987,92.875,61.811,167.523,61.811,256c0,107.248,86.941,194.189,194.189,194.189v-46.358
	C174.355,403.831,108.169,337.645,108.169,256z"/>
<g>
</g>
<g>
</g>
<g>
</g>
<g>
</g>
<g>
</g>
<g>
</g>
<g>
</g>
<g>
</g>
<g>
</g>
<g>
</g>
<g>
</g>
<g>
</g>
<g>
</g>
<g>
</g>
<g>
</g>
</svg>
