<?xml version="1.0"?>
<svg xmlns="http://www.w3.org/2000/svg" width="512" height="512" viewBox="0 0 512 512"><g><path d="M335.27,41.65C314.06,20.05,286.05,8.1,256.39,8H256A111.818,111.818,0,0,0,145.82,99.81a24,24,0,0,0,47.23,8.6A64,64,0,1,1,256,184h-1.05a109.628,109.628,0,0,0-77.77,32.21A111.725,111.725,0,0,0,144,296V480a24.032,24.032,0,0,0,24,24H344a24.032,24.032,0,0,0,24-24V121.13A112.926,112.926,0,0,0,335.27,41.65ZM352,480a8.011,8.011,0,0,1-8,8H168a8.011,8.011,0,0,1-8-8V296a95.884,95.884,0,0,1,28.46-68.45A93.748,93.748,0,0,1,254.95,200h.57a79.991,79.991,0,1,0-78.21-94.47,7.949,7.949,0,0,1-7.86,6.47,8.029,8.029,0,0,1-6.18-2.9,7.716,7.716,0,0,1-1.71-6.42A95.838,95.838,0,0,1,256,24h.33c25.35.09,49.33,10.34,67.52,28.86A97.042,97.042,0,0,1,352,121.13Z"/><path d="M328,280H184a8,8,0,0,0-8,8v80a8,8,0,0,0,8,8H328a8,8,0,0,0,8-8V288A8,8,0,0,0,328,280Zm-8,80H192V296H320Z"/><path d="M328,408H184a8,8,0,0,0,0,16H328a8,8,0,0,0,0-16Z"/><path d="M328,384H184a8,8,0,0,0,0,16H328a8,8,0,0,0,0-16Z"/><path d="M264,432H184a8,8,0,0,0,0,16h80a8,8,0,0,0,0-16Z"/><path d="M296,432h-8a8,8,0,0,0,0,16h8a8,8,0,0,0,0-16Z"/></g></svg>
