<?xml version="1.0" encoding="iso-8859-1"?>
<!-- Generator: Adobe Illustrator 19.0.0, SVG Export Plug-In . SVG Version: 6.00 Build 0)  -->
<svg version="1.1" id="Capa_1" xmlns="http://www.w3.org/2000/svg" xmlns:xlink="http://www.w3.org/1999/xlink" x="0px" y="0px"
	 viewBox="0 0 478.502 478.502" style="enable-background:new 0 0 478.502 478.502;" xml:space="preserve">
<g>
	<g>
		<path d="M360.3,162.1l-65.8-83.2c-11.2-14.1-27.4-23.4-45.2-26V10c0-5.5-4.5-10-10-10s-10,4.5-10,10v42.9
			c-17.8,2.5-34,11.8-45.1,26l-66,83.3c-5.7,7.3-8.9,16.3-8.9,25.6v249.9c0.1,22.6,18.5,40.9,41.1,40.8c0.1,0,0.1,0,0.2,0h177.3
			c22.6,0.2,41.1-18,41.3-40.6c0-0.1,0-0.1,0-0.2V187.8C369.3,178.5,366.1,169.5,360.3,162.1z M239.3,150.4
			c16.1,0,29.1,13,29.1,29.1c0,16.1-13,29.1-29.1,29.1c-16,0-29-13-29-29.1C210.3,163.5,223.3,150.4,239.3,150.4z M275.9,333.5
			c5.5,0,10,4.5,10,10s-4.5,10-10,10h-51.7c-0.1,2,0.1,4,0.4,6h46.1c5.5,0,10,4.5,10,10s-4.5,10-10,10h-36.2c0.1,1,0.3,0.5,0.4,0.6
			c10.3,10.4,25.7,13.8,39.4,8.6c5.1-2,10.9,0.6,12.9,5.7c2,5.1-0.6,10.9-5.7,12.9c-21,8-44.8,2.9-60.7-13
			c-4.4-4.2-7.9-9.3-10.5-14.8h-7.4c-5.5,0-10-4.5-10-10s4.5-10,10-10h1.5c-0.2-2-0.3-4-0.3-6h-1.3c-5.5,0-10-4.5-10-10
			s4.5-10,10-10h5.1c2.9-7.3,7.3-14,12.8-19.6c16-15.9,39.8-20.9,60.8-12.8c5.1,2,7.7,7.8,5.7,12.9c-2,5.1-7.8,7.7-12.9,5.7
			c-16.1-6.1-34.3-0.4-44,13.8H275.9z"/>
	</g>
</g>
<g>
</g>
<g>
</g>
<g>
</g>
<g>
</g>
<g>
</g>
<g>
</g>
<g>
</g>
<g>
</g>
<g>
</g>
<g>
</g>
<g>
</g>
<g>
</g>
<g>
</g>
<g>
</g>
<g>
</g>
</svg>
