<svg height="512pt" viewBox="0 0 512.00001 512" width="512pt" xmlns="http://www.w3.org/2000/svg"><path d="m257.761719 207.046875h-60.050781v90.050781h90.0625v-30h-60.0625v-30.050781h60.050781v-90.046875h-90.0625v30h60.0625zm0 0"/><path d="m407.859375 297.109375v-150.121094h-30v60.058594h-30.050781v-60.058594h-30v90.058594h60.050781v60.0625zm0 0"/><path d="m419.316406 113.902344-21.210937-21.214844 28.304687-28.308594 21.214844 21.214844zm0 0"/><path d="m340.109375 13.753906 27.714844 11.480469-15.320313 36.988281-27.714844-11.480468zm0 0"/><path d="m240.992188 0h30v40.03125h-30zm0 0"/><path d="m171.882812 13.75 15.320313 36.988281-27.71875 11.480469-15.320313-36.984375zm0 0"/><path d="m85.570312 64.375 28.308594 28.308594-21.214844 21.210937-28.308593-28.304687zm0 0"/><path d="m426.410156 447.644531-28.308594-28.304687 21.214844-21.214844 28.308594 28.308594zm0 0"/><path d="m486.769531 367.824219-36.988281-15.320313 11.480469-27.71875 36.988281 15.320313zm0 0"/><path d="m471.96875 241.007812h40.03125v30h-40.03125zm0 0"/><path d="m486.78125 144.191406 11.480469 27.71875-36.984375 15.320313-11.484375-27.71875zm0 0"/><path d="m228.347656 431.230469c-72.578125-17.761719-129.824218-75.007813-147.585937-147.585938h36.886719v-106.644531h-117.648438v58.824219c0 152.523437 123.644531 276.167969 276.167969 276.167969h58.824219v-117.648438h-106.644532zm0 0"/></svg>