<?xml version="1.0" encoding="iso-8859-1"?>
<!-- Generator: Adobe Illustrator 19.0.0, SVG Export Plug-In . SVG Version: 6.00 Build 0)  -->
<svg version="1.1" id="Capa_1" xmlns="http://www.w3.org/2000/svg" xmlns:xlink="http://www.w3.org/1999/xlink" x="0px" y="0px"
	 viewBox="0 0 469.333 469.333" style="enable-background:new 0 0 469.333 469.333;" xml:space="preserve">
<g>
	<g>
		<g>
			<path d="M234.667,64c-105.865,0-192,86.135-192,192c0,47.589,17.507,91.098,46.285,124.681l-24.421,74.673
				c-1.542,4.688,0.344,9.823,4.552,12.406c1.729,1.052,3.656,1.573,5.583,1.573c2.75,0,5.49-1.063,7.542-3.125l48.829-48.829
				C160.969,436.668,196.49,448,234.667,448s73.698-11.332,103.629-30.621l48.829,48.829c2.052,2.063,4.792,3.125,7.542,3.125
				c1.927,0,3.854-0.521,5.583-1.573c4.208-2.583,6.094-7.719,4.552-12.406l-24.421-74.673
				c28.779-33.583,46.285-77.092,46.285-124.681C426.667,150.135,340.531,64,234.667,64z M306.219,327.542
				c-2.083,2.083-4.813,3.125-7.542,3.125c-2.729,0-5.458-1.042-7.542-3.125l-51.27-51.262c-1.707,0.441-3.357,1.053-5.199,1.053
				c-11.76,0-21.333-9.573-21.333-21.333c0-7.792,4.409-14.329,10.667-18.053v-99.28c0-5.896,4.771-10.667,10.667-10.667
				s10.667,4.771,10.667,10.667v99.28C251.591,241.671,256,248.208,256,256c0,1.842-0.611,3.491-1.052,5.197l51.271,51.262
				C310.385,316.625,310.385,323.375,306.219,327.542z"/>
			<path d="M163.885,43.198c2-2,3.125-4.719,3.125-7.542c0-2.833-1.125-5.542-3.125-7.542C145.74,9.979,121.635,0,96,0
				C43.062,0,0,43.062,0,96c0,25.635,9.979,49.74,28.115,67.885c2,2,4.708,3.125,7.542,3.125c2.833,0,5.542-1.125,7.542-3.125
				L163.885,43.198z"/>
			<path d="M373.333,0c-25.635,0-49.74,9.979-67.885,28.115c-2,2-3.125,4.708-3.125,7.542c0,2.823,1.125,5.542,3.125,7.542
				l120.688,120.688c2,2,4.719,3.125,7.542,3.125c2.833,0,5.542-1.125,7.542-3.125c18.135-18.146,28.115-42.25,28.115-67.885
				C469.333,43.062,426.271,0,373.333,0z"/>
		</g>
	</g>
</g>
<g>
</g>
<g>
</g>
<g>
</g>
<g>
</g>
<g>
</g>
<g>
</g>
<g>
</g>
<g>
</g>
<g>
</g>
<g>
</g>
<g>
</g>
<g>
</g>
<g>
</g>
<g>
</g>
<g>
</g>
</svg>
