<?xml version="1.0"?>
<svg xmlns="http://www.w3.org/2000/svg" xmlns:xlink="http://www.w3.org/1999/xlink" viewBox="0 0 512 512" width="512" height="512"><linearGradient id="a" gradientUnits="userSpaceOnUse" x1="256" x2="256" y1="15.117" y2="495.177"><stop offset="0" stop-color="#00efd1"/><stop offset="1" stop-color="#00acea"/></linearGradient><linearGradient id="b" x1="300.518" x2="300.518" xlink:href="#a" y1="15.117" y2="495.177"/><linearGradient id="c" x1="202" x2="202" xlink:href="#a" y1="15.117" y2="495.177"/><path d="m384.841 95h-41.841v-19.273a9.779 9.779 0 0 0 -10.01-9.727h-31.332a49.543 49.543 0 0 0 -92.223 0h-30.949c-5.523 0-10.486 4.2-10.486 9.727v19.273h-40.841a41.07 41.07 0 0 0 -41.159 41.22v300.053c0 22.842 18.317 41.727 41.159 41.727h257.682c22.842 0 41.159-18.885 41.159-41.727v-300.053a41.07 41.07 0 0 0 -41.159-41.22zm-196.841-9h28.719a10.124 10.124 0 0 0 9.735-7.846c3.337-14.185 15-23.784 29.022-23.784a29.688 29.688 0 0 1 28.963 23.544 10.092 10.092 0 0 0 9.794 8.086h28.767v45h-135zm-40 33h20v22.143c0 5.523 4.963 9.857 10.486 9.857h154.5a9.887 9.887 0 0 0 10.014-9.857v-22.143h21v274h-216zm258 317.273c0 11.813-9.345 21.727-21.159 21.727h-257.682c-11.814 0-21.159-9.914-21.159-21.727v-300.053a21.049 21.049 0 0 1 21.159-21.22h.841v288.434a9.331 9.331 0 0 0 9.634 9.566h236.732a9.331 9.331 0 0 0 9.634-9.566v-288.434h.841a21.049 21.049 0 0 1 21.159 21.22z" fill="url(#a)"/><path d="m334.562 215h-68.087a10 10 0 0 0 0 20h68.087a10 10 0 0 0 0-20z" fill="url(#b)"/><path d="m228 191h-52a10 10 0 0 0 -10 10v47a10 10 0 0 0 10 10h52a10 10 0 0 0 10-10v-47a10 10 0 0 0 -10-10zm-10 47h-32v-27h32z" fill="url(#c)"/><path d="m334.562 325h-68.087a10 10 0 0 0 0 20h68.087a10 10 0 0 0 0-20z" fill="url(#b)"/><path d="m228 301h-52a10 10 0 0 0 -10 10v47a10 10 0 0 0 10 10h52a10 10 0 0 0 10-10v-47a10 10 0 0 0 -10-10zm-10 47h-32v-27h32z" fill="url(#c)"/></svg>
