<svg id="Capa_1" enable-background="new 0 0 512 512" height="512" viewBox="0 0 512 512" width="512" xmlns="http://www.w3.org/2000/svg"><g><g><g><g><g><g><g><g><g><circle cx="256" cy="256" fill="#a3d4ff" r="256"/></g></g></g></g></g></g></g></g><path d="m512 256c0-15.457-1.37-30.595-3.995-45.297l-117.538-117.538-10.53 12.575-45.747-45.748-194.412 121.788 91.757 91.756-91.757 28.428 93.899 93.899-93.899 26.286 88.351 88.351c9.154.991 18.454 1.5 27.872 1.5 141.384 0 255.999-114.615 255.999-256z" fill="#65b1fc"/><g><g><path d="m225.239 213.349h-103.706l18.245 88.616h85.461z" fill="#414952"/></g><g><path d="m286.761 213.349h103.706l-18.245 88.616h-85.461z" fill="#23272b"/></g></g><g><g><path d="m225.239 333.534h-103.706l18.245 88.616h85.461z" fill="#414952"/></g><g><path d="m286.761 333.534h103.706l-18.245 88.616h-85.461z" fill="#23272b"/></g></g><g><g><path d="m225.239 93.165h-103.706l18.245 88.615h85.461z" fill="#414952"/></g><g><path d="m286.761 93.165h103.706l-18.245 88.615h-85.461z" fill="#23272b"/></g></g><g><path d="m177.81 59.992h156.38v396.5h-156.38z" fill="#555a66"/></g><g><path d="m256.121 59.992h78.069v396.5h-78.069z" fill="#333940"/></g><g><circle cx="256" cy="137.472" fill="#fe6a16" r="44.308"/></g><g><path d="m300.308 137.472c0-24.43-19.772-44.239-44.187-44.305v88.609c24.414-.065 44.187-19.874 44.187-44.304z" fill="#f24500"/></g><g><circle cx="256" cy="257.657" fill="#ffce00" r="44.308"/></g><g><path d="m300.308 257.657c0-24.43-19.772-44.239-44.187-44.305v88.609c24.414-.065 44.187-19.874 44.187-44.304z" fill="#fdba12"/></g><g><circle cx="256" cy="377.842" fill="#7584f2" r="44.308"/></g><g><path d="m300.308 377.842c0-24.43-19.772-44.239-44.187-44.305v88.609c24.414-.065 44.187-19.874 44.187-44.304z" fill="#606aea"/></g></g></svg>